Coordinates
version=1
nRows=14
nColumns=21
inDegrees=yes

Units are S.I. units (second, meters, Newtons, ...)
If the header above contains a line with 'inDegrees', this indicates whether rotational values are in degrees (yes) or radians (no).

endheader
time	bJoint_3	seatpos	slocangle	soarinout	sblpos	plocangle	poarinout	pblpos	hipangle	kneeangle	footangle	lbackangle	uarmleft_out	uarmleft_trn	uarmleft_up	se_inout	se_updown	handleleft_out	handleleft_trn	handleleft_up
      0.00000000	     -0.00000006	     -0.65635580	     77.35983531	     18.00000854	    -18.00000854	      0.00025006	     10.33757244	    -10.33757244	     23.54695129	    144.98754668	     78.53449797	     11.29580685	    -12.53813966	    -43.46692060	   -277.17057114	     -3.38783747	    366.53723641	    159.79795080	    -58.88652089	   -225.04082834
      0.00500000	     -0.00000006	     -0.65612541	     77.32797990	     18.01231552	    -18.01231552	      0.00024806	     10.33757409	    -10.33757409	     23.55764616	    144.95855229	     78.51619844	     11.24641114	    -12.39160322	    -43.50947191	   -277.21085211	     -3.24948251	    366.26996627	    159.91465287	    -58.92139099	   -225.12276955
      0.01000000	     -0.00000006	     -0.65535152	     77.30364697	     17.99036828	    -17.99036828	      0.00024757	     10.33757443	    -10.33757443	     23.59363701	    144.86113201	     78.45476903	     11.29141108	    -12.53525978	    -43.46200139	   -277.09893195	     -3.40600783	    366.27503839	    159.85185558	    -58.84367989	   -225.20526491
      0.01500000	     -0.00000006	     -0.65513476	     77.27469788	     18.00195581	    -18.00195581	      0.00024719	     10.33757466	    -10.33757466	     23.60373566	    144.83383895	     78.43757461	     11.25723554	    -12.49186704	    -43.38788559	   -277.11319863	     -3.36015431	    366.29860575	    159.87549539	    -58.86164556	   -225.20455493
      0.02000000	     -0.00000006	     -0.65413063	     77.21819132	     17.99246342	    -17.99246342	      0.00470073	     10.33757629	    -10.33757629	     23.65062287	    144.70735742	     78.35798029	     11.25297564	    -12.48901552	    -43.38318338	   -276.99131907	     -3.38268481	    366.03322167	    159.99956481	    -58.78383754	   -225.30867835
      0.02500000	     -0.00000006	     -0.65336299	     77.20524011	     17.99853899	    -17.99853899	      0.00443476	     10.33757653	    -10.33757653	     23.68658241	    144.61061580	     78.29719821	     11.30349949	    -12.61708319	    -43.20812605	   -277.00831356	     -3.37658669	    366.36350212	    159.95627092	    -58.84841329	   -225.18632780
      0.03000000	     -0.00000006	     -0.65310878	     77.15099624	     18.00186192	    -18.00186192	      0.00442544	     10.33757663	    -10.33757663	     23.69851238	    144.57857022	     78.27708260	     11.23106831	    -12.46163669	    -43.18936333	   -277.01044770	     -3.29268816	    366.13403528	    160.04210024	    -58.83347956	   -225.29750020
      0.03500000	     -0.00000006	     -0.65211829	     77.09739396	     17.99145597	    -17.99145597	      0.00441905	     10.33757669	    -10.33757669	     23.74509816	    144.45366731	     78.19876547	     11.24210979	    -12.56163629	    -43.06891550	   -276.91298285	     -3.40417191	    366.16015713	    160.00336191	    -58.77327079	   -225.37975720
      0.04000000	     -0.00000006	     -0.65112036	     77.05213171	     18.01020961	    -18.01020961	      0.00441000	     10.33757677	    -10.33757677	     23.79219886	    144.32775545	     78.11995432	     11.24357852	    -12.54395525	    -42.93603376	   -276.97103242	     -3.25798020	    366.22550332	    160.07573453	    -58.87466809	   -225.33814943
      0.04500000	     -0.00000006	     -0.65013042	     76.99845478	     17.99988587	    -17.99988587	      0.00440374	     10.33757682	    -10.33757682	     23.83908411	    144.20278336	     78.04186748	     11.25476386	    -12.64313467	    -42.81634307	   -276.87450330	     -3.36880424	    366.25043632	    160.03769977	    -58.81476473	   -225.42009277
      0.05000000	     -0.00000006	     -0.64910807	     76.93057242	     18.00936267	    -18.00936267	      0.01857277	     10.33757736	    -10.33757736	     23.88767212	    144.07364806	     77.96132018	     11.23317880	    -12.61606170	    -42.62208857	   -276.87631984	     -3.28120898	    366.35141445	    160.10315461	    -58.85226845	   -225.38792698
      0.05500000	     -0.00000006	     -0.64810428	     76.87329540	     17.99999534	    -17.99999534	      0.01852645	     10.33757738	    -10.33757738	     23.93554288	    143.94678543	     77.88232832	     11.22915243	    -12.61301161	    -42.61848697	   -276.80541035	     -3.29754384	    366.08718345	    160.15836534	    -58.81089332	   -225.55096288
      0.06000000	     -0.00000006	     -0.64634561	     76.80620748	     17.99589250	    -17.99589250	      0.01847936	     10.33757739	    -10.33757739	     24.01980321	    143.72434859	     77.74415180	     11.29146736	    -12.83919453	    -42.32345715	   -276.72832747	     -3.40344787	    366.44319305	    160.07621236	    -58.81520303	   -225.50993124
      0.06500000	     -0.00000006	     -0.64534237	     76.74874077	     17.98655670	    -17.98655670	      0.01844750	     10.33757740	    -10.33757740	     24.06808987	    143.59736144	     77.66545131	     11.28754608	    -12.83633307	    -42.32007637	   -276.65758777	     -3.41990121	    366.17875184	    160.13121441	    -58.77411999	   -225.67285361
